<?xml version="1.0" encoding="UTF-8" standalone="no"?>
<!-- Created with Inkscape (http://www.inkscape.org/) -->

<svg
  width="233.52383mm"
  height="48.188557mm"
  viewBox="0 0 233.52383 48.188557"
  version="1.1"
  id="svg1"
  xml:space="preserve"
  xmlns:inkscape="http://www.inkscape.org/namespaces/inkscape"
  xmlns:sodipodi="http://sodipodi.sourceforge.net/DTD/sodipodi-0.dtd"
  xmlns="http://www.w3.org/2000/svg"
  xmlns:svg="http://www.w3.org/2000/svg"><sodipodi:namedview
     id="namedview1"
     pagecolor="#505050"
     bordercolor="#eeeeee"
     borderopacity="1"
     inkscape:showpageshadow="0"
     inkscape:pageopacity="0"
     inkscape:pagecheckerboard="0"
     inkscape:deskcolor="#505050"
     inkscape:document-units="mm" /><defs
     id="defs1"><style
       id="style1">.cls-1{fill:none;}.cls-2{clip-path:url(#clippath);}.cls-3{fill:url(#Nepojmenovaný_přechod_3);}.cls-4{fill:url(#Nepojmenovaný_přechod_2);}.cls-5{clip-path:url(#clippath-1);}.cls-6{clip-path:url(#clippath-2);}.cls-7{fill:url(#Nepojmenovaný_přechod);}</style><clipPath
       id="clippath"><path
         class="cls-1"
         d="m 156.04,44.34 h 33.88 c 2.58,0 4.68,2.1 4.68,4.68 v 125.07 c 0,2.58 -2.1,4.68 -4.68,4.68 h -33.88 c -2.58,0 -4.68,-2.1 -4.68,-4.68 V 49.02 c 0,-2.58 2.1,-4.68 4.68,-4.68 z"
         id="path1" /></clipPath><linearGradient
       id="Nepojmenovaný_přechod"
       x1="-167.49001"
       y1="470.26001"
       x2="-166.49001"
       y2="470.26001"
       gradientTransform="matrix(97.45,0,0,-97.45,16426.9,45936.4)"
       gradientUnits="userSpaceOnUse"><stop
         offset="0"
         stop-color="#b02de9"
         id="stop1" /><stop
         offset=".02"
         stop-color="#b02de9"
         id="stop2" /><stop
         offset=".8"
         stop-color="#6d00cc"
         id="stop3" /><stop
         offset="1"
         stop-color="#6d00cc"
         id="stop4" /></linearGradient><clipPath
       id="clippath-1"><path
         class="cls-1"
         d="M 56.66,45.99 0.5,157.74 c -1.16,2.31 -0.23,5.12 2.08,6.28 l 30.27,15.21 c 2.31,1.16 5.12,0.23 6.28,-2.08 L 95.29,65.4 c 1.16,-2.31 0.23,-5.12 -2.08,-6.28 L 62.94,43.91 c -0.68,-0.34 -1.39,-0.5 -2.1,-0.5 -1.71,0 -3.36,0.94 -4.18,2.58"
         id="path4" /></clipPath><linearGradient
       id="Nepojmenovaný_přechod_2"
       x1="-167.49001"
       y1="470.26001"
       x2="-166.49001"
       y2="470.26001"
       gradientTransform="matrix(107.08,0,0,-107.08,17962.6,50466.15)"
       gradientUnits="userSpaceOnUse"><stop
         offset="0"
         stop-color="#f0f"
         id="stop5" /><stop
         offset="0"
         stop-color="#f0f"
         id="stop6" /><stop
         offset=".17"
         stop-color="#e90cf9"
         id="stop7" /><stop
         offset=".54"
         stop-color="#c023ed"
         id="stop8" /><stop
         offset=".73"
         stop-color="#b02de9"
         id="stop9" /><stop
         offset="1"
         stop-color="#b02de9"
         id="stop10" /></linearGradient><clipPath
       id="clippath-2"><path
         class="cls-1"
         d="M 103.9,46.39 79.87,168.2 c -0.5,2.53 1.14,4.98 3.67,5.49 l 33.21,6.7 c 2.54,0.51 5.02,-1.14 5.52,-3.68 L 146.3,54.9 c 0.5,-2.53 -1.14,-4.98 -3.67,-5.49 l -33.21,-6.7 c -0.31,-0.06 -0.62,-0.09 -0.93,-0.09 -2.19,0 -4.15,1.54 -4.59,3.77"
         id="path10" /></clipPath><linearGradient
       id="Nepojmenovaný_přechod_3"
       x1="-167.49001"
       y1="470.26001"
       x2="-166.49001"
       y2="470.26001"
       gradientTransform="matrix(214.7,0,0,-214.7,35959.81,101077.55)"
       gradientUnits="userSpaceOnUse"><stop
         offset="0"
         stop-color="#f0f"
         id="stop11" /><stop
         offset=".02"
         stop-color="#f0f"
         id="stop12" /><stop
         offset=".09"
         stop-color="#e90cf9"
         id="stop13" /><stop
         offset=".23"
         stop-color="#c023ed"
         id="stop14" /><stop
         offset=".3"
         stop-color="#b02de9"
         id="stop15" /><stop
         offset=".42"
         stop-color="#a42be3"
         id="stop16" /><stop
         offset=".63"
         stop-color="#8626d5"
         id="stop17" /><stop
         offset=".85"
         stop-color="#6021c3"
         id="stop18" /><stop
         offset="1"
         stop-color="#6021c3"
         id="stop19" /></linearGradient></defs><g
     inkscape:label="Layer 1"
     inkscape:groupmode="layer"
     id="layer1"
     transform="translate(11.679291,-124.40573)"><g
       id="g1"
       transform="matrix(0.26458333,0,0,0.26458333,-11.679495,124.40572)"><path
         d="m 302.28,94.98 v 79.5 c 0,2.58 -2.1,4.68 -4.68,4.68 h -34.35 c -2.59,0 -4.68,-2.1 -4.68,-4.68 V 48.94 c 0,-2.58 2.1,-4.68 4.68,-4.68 h 34.35 c 2.58,0 4.68,2.1 4.68,4.68 v 9.89 c 8.63,-10.79 20.77,-17.54 37.77,-17.54 15.92,0 29.68,6.48 38.04,18.62 10.25,-12.14 24.82,-18.62 42.63,-18.62 30.22,0 50.99,17.81 50.99,51.8 v 81.39 c 0,2.58 -2.1,4.68 -4.68,4.68 h -34.35 c -2.59,0 -4.68,-2.1 -4.68,-4.68 v -72.21 c 0,-14.84 -8.36,-22.12 -19.7,-22.12 -9.44,0 -17,5.94 -21.32,14.84 v 79.5 c 0,2.58 -2.1,4.68 -4.68,4.68 h -34.35 c -2.59,0 -4.68,-2.1 -4.68,-4.68 v -72.21 c 0,-14.84 -8.36,-22.12 -19.7,-22.12 -9.71,0 -17,5.94 -21.32,14.84"
         id="path19" /><path
         d="m 529.16,181.86 c -25.36,0 -46.68,-16.73 -46.68,-42.63 0,-23.74 15.65,-34.81 44.79,-42.36 l 37.24,-9.71 c -1.08,-8.9 -8.1,-13.22 -19.43,-13.22 -10.04,0 -17.26,3.84 -20.59,11.52 -0.93,2.14 -3.16,3.4 -5.44,2.86 L 489.54,81.3 c -2.72,-0.65 -4.31,-3.55 -3.34,-6.17 8.47,-22.92 32.01,-34.93 60.49,-34.93 38.31,0 60.44,18.08 60.44,49.91 v 84.36 c 0,2.59 -2.1,4.68 -4.68,4.68 h -32.57 c -2.54,0 -4.62,-2.03 -4.68,-4.57 l -0.16,-7.03 -0.27,0.27 c -11.06,9.44 -21.85,14.03 -35.62,14.03 m 11.06,-33.73 c 5.67,0 9.98,-1.62 16.46,-5.4 l 7.55,-4.59 0.27,-21.86 -19.43,5.4 c -13.22,3.78 -19.16,7.02 -19.16,14.57 0,8.36 7.28,11.87 14.3,11.87"
         id="path20" /><path
         d="m 676.92,115.49 -13.22,12.14 v 46.85 c 0,2.59 -2.1,4.68 -4.68,4.68 h -33.54 c -2.59,0 -4.68,-2.1 -4.68,-4.68 V 4.68 C 620.8,2.1 622.9,0 625.48,0 h 33.54 c 2.58,0 4.68,2.1 4.68,4.68 v 76.81 l 39.13,-36 c 0.86,-0.79 2,-1.24 3.17,-1.24 h 41.41 c 4.28,0 6.31,5.26 3.16,8.14 l -40.18,36.65 45.82,83.18 c 1.72,3.12 -0.54,6.94 -4.1,6.94 h -39.15 c -1.74,0 -3.35,-0.97 -4.15,-2.52 l -31.88,-61.16 z"
         id="path21" /><path
         d="m 819.25,182.13 c -37.5,0 -71.77,-23.47 -71.77,-70.96 0,-44.79 32.92,-70.69 69.07,-70.69 36.15,0 64.76,26.17 65.83,67.45 0.12,4.36 0.19,7.4 0.23,9.56 0.04,2.62 -2.07,4.74 -4.68,4.74 h -87.28 c 1.35,16.19 14.3,26.44 30.76,26.44 11.71,0 21.31,-4.87 28.04,-13.67 1.49,-1.95 4.24,-2.4 6.28,-1.03 l 21.8,14.6 c 2.18,1.46 2.72,4.42 1.25,6.59 -11.68,17.19 -30.94,26.97 -59.52,26.97 M 791.47,95.79 h 47.22 c -0.27,-15.38 -11.6,-22.12 -23.47,-22.12 -11.06,0 -22.39,6.48 -23.74,22.12"
         id="path22" /><g
         class="cls-2"
         clip-path="url(#clippath)"
         id="g22"><rect
           class="cls-7"
           x="129.45"
           y="41.009998"
           width="87.080002"
           height="141.09"
           transform="rotate(-20.24,172.97707,111.54984)"
           id="rect22"
           style="fill:url(#Nepojmenovan%C3%BD_p%C5%99echod)" /></g><g
         class="cls-5"
         clip-path="url(#clippath-1)"
         id="g23"><rect
           class="cls-4"
           x="-23.860001"
           y="29.77"
           width="143.50999"
           height="164.28"
           transform="rotate(-23.38,47.906218,111.92124)"
           id="rect23"
           style="fill:url(#Nepojmenovan%C3%BD_p%C5%99echod_2)" /></g><g
         class="cls-6"
         clip-path="url(#clippath-2)"
         id="g24"><rect
           class="cls-3"
           x="57.560001"
           y="35.23"
           width="111.05"
           height="153.08"
           transform="rotate(-20.21,113.09075,111.77116)"
           id="rect24"
           style="fill:url(#Nepojmenovan%C3%BD_p%C5%99echod_3)" /></g></g><path
       style="fill:#ffffff;stroke-width:9.77939"
       d="m 215.55713,646.14547 c -0.43868,-1.14317 -0.7976,-30.44124 -0.7976,-65.10681 0,-47.29705 0.38749,-63.4158 1.55248,-64.58079 2.16337,-2.16338 37.42483,-2.16338 39.58821,0 0.85386,0.85386 1.55247,4.05585 1.55247,7.11552 0,3.05968 0.31995,5.56305 0.71099,5.56305 0.39105,0 2.86531,-2.1195 5.49837,-4.71 2.63305,-2.59051 7.98935,-6.22913 11.90289,-8.08583 6.19828,-2.94065 8.78676,-3.37582 20.08005,-3.37582 12.04863,0 13.57629,0.30117 21.62396,4.26302 4.8916,2.40813 10.33859,6.30013 12.51855,8.9448 l 3.85911,4.68177 5.40688,-4.8848 c 2.97378,-2.68663 9.26288,-6.71179 13.97576,-8.94479 7.98944,-3.78546 9.5312,-4.06 22.79993,-4.06 16.64699,0 23.86633,2.02079 33.52635,9.38447 8.01565,6.11022 14.33448,17.24668 16.29362,28.71633 0.93454,5.47123 1.30355,24.05889 1.04148,52.46045 l -0.40589,43.98689 -19.95493,0.35835 c -15.09724,0.2711 -20.21013,-0.0438 -21.00333,-1.29373 -0.57663,-0.90865 -1.05823,-19.69965 -1.07024,-41.75778 -0.0194,-35.601 -0.27588,-40.60396 -2.28383,-44.54179 -3.06345,-6.00776 -7.92938,-9.3027 -14.89814,-10.08818 -8.00166,-0.9019 -14.17121,1.45144 -19.62185,7.48464 l -4.61341,5.10649 v 40.50156 c 0,30.48208 -0.40235,41.05182 -1.62641,42.72582 -1.43434,1.96158 -3.91707,2.18176 -21.02315,1.86443 l -19.39673,-0.35981 -0.64687,-41.39943 c -0.7053,-45.13939 -1.07323,-47.40092 -8.6056,-52.89581 -8.17292,-5.96217 -23.33777,-3.24232 -29.90519,5.36356 l -3.5355,4.6329 -0.64687,42.14939 -0.64686,42.14939 -20.22556,0.35552 c -17.59196,0.30923 -20.32941,0.0849 -21.02314,-1.72298 z"
       id="path2"
       transform="scale(0.26458333)" /><path
       style="fill:#ffffff;stroke-width:9.77939"
       d="m 477.0885,650.50012 c -37.51192,-4.7931 -51.88222,-50.64363 -22.30397,-71.16407 7.2327,-5.01782 15.97031,-8.13901 42.65547,-15.23711 20.27963,-5.39427 23.2359,-6.50643 22.89008,-8.61136 -1.28766,-7.83775 -10.51776,-12.79464 -21.77421,-11.69352 -8.64649,0.84581 -14.25265,3.84216 -17.5063,9.35671 -1.46269,2.47907 -3.66714,4.44778 -4.98037,4.44778 -4.90306,0 -30.46179,-6.76721 -32.30917,-8.55453 -1.70713,-1.65163 -1.50492,-2.68111 1.74634,-8.89094 10.341,-19.75104 33.17303,-30.25205 62.39718,-28.69799 26.79817,1.42506 43.62644,11.46758 51.30777,30.61867 2.72378,6.79092 2.87419,9.23483 3.29702,53.57084 0.24367,25.55042 0.10083,47.81878 -0.31743,49.48525 -0.75484,3.00755 -0.90271,3.02995 -20.00338,3.02995 -20.76552,0 -20.81348,-0.0166 -20.81348,-7.22134 0,-3.89736 -0.46561,-3.89184 -5.65591,0.067 -10.25615,7.82274 -24.43677,11.30815 -38.62964,9.49466 z m 33.81598,-36.12177 c 5.21883,-2.60788 8.48097,-5.14347 9.26276,-7.19975 1.4356,-3.7759 1.63004,-21.12496 0.23651,-21.10187 -1.64893,0.0273 -24.03285,6.34581 -28.13867,7.94294 -11.05956,4.30207 -14.29027,13.52739 -7.21505,20.60261 5.41787,5.41787 14.69943,5.3303 25.85445,-0.24393 z"
       id="path3"
       transform="scale(0.26458333)" /><path
       style="fill:#ffffff;stroke-width:9.77939"
       d="m 577.80243,646.14627 c -0.43885,-1.14361 -0.7979,-40.38424 -0.7979,-87.20139 0,-70.98534 0.29787,-85.36931 1.79361,-86.61066 1.21623,-1.00938 7.77549,-1.37272 20.37628,-1.12871 l 18.58267,0.35985 0.34187,40.42913 c 0.18802,22.23602 0.7702,40.39804 1.29373,40.36003 0.52353,-0.038 9.97565,-8.4616 21.00471,-18.71911 l 20.05285,-18.65001 22.15847,-0.04 c 17.79796,-0.0321 22.46435,0.32855 23.71281,1.83286 0.91516,1.10271 1.11331,2.61968 0.48184,3.68897 -0.58987,0.99886 -9.97745,9.90758 -20.86129,19.79715 -13.96473,12.68902 -19.62025,18.6334 -19.21609,20.19759 0.315,1.21911 10.56436,20.32799 22.77637,42.46419 12.21201,22.13619 22.01564,41.22394 21.78583,42.4172 -0.37189,1.93109 -2.89096,2.16958 -22.9169,2.16958 h -22.49908 l -15.92955,-30.4027 c -8.76126,-16.72149 -16.16984,-30.98489 -16.46351,-31.69644 -0.29368,-0.71155 -3.79356,1.87634 -7.77753,5.75088 l -7.24356,7.04462 -0.35048,24.65182 -0.35049,24.65182 -19.57838,0.35632 c -17.00134,0.30941 -19.68341,0.0826 -20.37628,-1.72298 z"
       id="path5"
       transform="scale(0.26458333)" /><path
       style="fill:#ffffff;stroke-width:9.77939"
       d="m 759.5189,650.1502 c -35.29745,-6.68697 -57.57887,-36.15264 -55.3115,-73.14567 1.33677,-21.80995 10.27016,-39.4329 26.01137,-51.31283 26.70494,-20.15427 63.24579,-18.92102 86.13007,2.90689 8.6534,8.25395 13.20649,15.27948 16.94829,26.15165 2.72531,7.91866 5.55279,30.24817 4.32144,34.12781 -0.70518,2.22184 -3.35926,2.35753 -46.11203,2.35753 h -45.36379 l 0.72288,5.38946 c 1.01008,7.53076 6.79266,15.16862 14.4762,19.12076 5.27769,2.71465 8.16428,3.29138 16.15981,3.22862 10.95756,-0.086 17.24671,-2.60421 25.79768,-10.32949 2.7225,-2.45961 5.46162,-4.47271 6.08693,-4.47355 0.62531,-8.3e-4 6.52209,3.62233 13.10395,8.05148 7.82574,5.26619 11.96702,8.87517 11.96702,10.42882 0,3.71751 -12.2225,15.7105 -20.51633,20.13107 -14.68621,7.82766 -36.4445,10.77323 -54.42199,7.36745 z m 35.42647,-87.70016 c -2.63645,-12.24255 -11.28052,-19.08255 -24.11563,-19.08255 -12.13957,0 -21.09294,7.22534 -23.64641,19.08255 l -0.90548,4.20463 h 24.7865 24.7865 z"
       id="path6"
       transform="scale(0.26458333)" /></g></svg>